HIERARCHY
ROOT Hips
{
 OFFSET 0.000000 0.000000 0.000000
 CHANNELS 6 Xposition Yposition Zposition Yrotation Xrotation Zrotation
 JOINT Chest
 {
  OFFSET 0.000000 9.588913 -0.003946
  CHANNELS 3 Yrotation Xrotation Zrotation
  JOINT Chest2
  {
   OFFSET 0.000000 9.541882 0.008053
   CHANNELS 3 Yrotation Xrotation Zrotation
   JOINT Chest3
   {
    OFFSET 0.000000 9.501360 0.000000
    CHANNELS 3 Yrotation Xrotation Zrotation
    JOINT Chest4
    {
     OFFSET 0.000000 9.491660 0.000000
     CHANNELS 3 Yrotation Xrotation Zrotation
     JOINT Neck
     {
      OFFSET 0.000000 14.331917 0.000000
      CHANNELS 3 Yrotation Xrotation Zrotation
      JOINT Head
      {
       OFFSET 0.000000 8.884799 0.017034
       CHANNELS 3 Yrotation Xrotation Zrotation
       End Site
       {
        OFFSET 0.000000 16.896195 0.008993
       }
      }
     }
     JOINT RightCollar
     {
      OFFSET -2.923010 9.499495 0.000000
      CHANNELS 3 Yrotation Xrotation Zrotation
      JOINT RightShoulder
      {
       OFFSET -13.795216 0.000000 0.000000
       CHANNELS 3 Yrotation Xrotation Zrotation
       JOINT RightElbow
       {
        OFFSET -30.272209 0.000000 0.000000
        CHANNELS 3 Yrotation Xrotation Zrotation
        JOINT RightWrist
        {
         OFFSET -24.478199 0.000000 0.000000
         CHANNELS 3 Yrotation Xrotation Zrotation
         End Site
         {
          OFFSET -18.090752 0.000000 0.000000
         }
        }
       }
      }
     }
     JOINT LeftCollar
     {
      OFFSET 2.923010 9.499495 0.000000
      CHANNELS 3 Yrotation Xrotation Zrotation
      JOINT LeftShoulder
      {
       OFFSET 13.795216 0.000000 0.000000
       CHANNELS 3 Yrotation Xrotation Zrotation
       JOINT LeftElbow
       {
        OFFSET 30.272209 0.000000 0.000000
        CHANNELS 3 Yrotation Xrotation Zrotation
        JOINT LeftWrist
        {
         OFFSET 24.478199 0.000000 0.000000
         CHANNELS 3 Yrotation Xrotation Zrotation
         End Site
         {
          OFFSET 18.090752 0.000000 0.000000
         }
        }
       }
      }
     }
    }
   }
  }
 }
 JOINT RightHip
 {
  OFFSET -7.826875 0.019532 0.001973
  CHANNELS 3 Yrotation Xrotation Zrotation
  JOINT RightKnee
  {
   OFFSET 0.000000 -40.546152 -0.001885
   CHANNELS 3 Yrotation Xrotation Zrotation
   JOINT RightAnkle
   {
    OFFSET 0.000000 -39.417092 -0.003189
    CHANNELS 3 Yrotation Xrotation Zrotation
    JOINT RightToe
    {
     OFFSET 0.000000 -7.579396 17.243563
     CHANNELS 3 Yrotation Xrotation Zrotation
     End Site
     {
      OFFSET 0.000000 -1.500329 6.694466
     }
    }
   }
  }
 }
 JOINT LeftHip
 {
  OFFSET 7.826875 0.019532 0.001973
  CHANNELS 3 Yrotation Xrotation Zrotation
  JOINT LeftKnee
  {
   OFFSET 0.000000 -40.546152 -0.001885
   CHANNELS 3 Yrotation Xrotation Zrotation
   JOINT LeftAnkle
   {
    OFFSET 0.000000 -39.417092 -0.003189
    CHANNELS 3 Yrotation Xrotation Zrotation
    JOINT LeftToe
    {
     OFFSET 0.000000 -7.579396 17.243563
     CHANNELS 3 Yrotation Xrotation Zrotation
     End Site
     {
      OFFSET 0.000000 -1.500329 6.694466
     }
    }
   }
  }
 }
}
MOTION
Frames: 8
Frame Time: 0.008333
1.974317 88.809666 9.796932 -56.407756 -7.291979 -7.155456 10.609906 4.455396 -5.093290 6.268195 2.571426 -2.776452 7.817242 3.260302 -3.426164 6.268208 2.571421 -2.776444 -4.020036 9.044320 0.259707 -4.441012 -16.145107 1.240111 -9.331487 2.556635 1.896450 4.512786 -0.981039 89.488403 12.865455 6.567474 8.024474 -2.807596 -14.524060 1.533483 -18.720171 -0.564920 2.759215 3.732747 -4.829806 -82.775620 7.097143 -1.773255 0.850101 -6.766031 -9.709953 11.418716 7.331460 10.966789 -1.678670 9.954183 1.552396 -1.751974 -3.094080 -0.620511 13.444380 0.135199 -1.846978 -1.068922 13.013859 5.923979 12.093847 10.795059 13.221194 2.897349 0.148321 -11.547246 -4.987394 -0.107173 0.539300 -0.023858
1.852706 88.837625 9.763049 -56.361917 -7.290432 -7.032840 10.578279 4.423773 -5.011378 6.233567 2.534878 -2.747387 7.774381 3.213898 -3.390691 6.233580 2.534872 -2.747377 -4.030484 9.054339 0.302012 -4.462662 -16.134431 1.288712 -9.476362 2.649480 1.840583 4.437653 -1.039378 89.570943 12.867840 6.513136 8.016457 -2.710925 -14.574934 1.427650 -18.737336 -0.537214 2.769813 3.660942 -4.716998 -82.907912 7.143098 -1.703019 0.894661 -6.657393 -9.664970 11.317701 7.191037 11.121575 -1.738377 9.888871 1.402659 -1.784007 -3.011967 -0.592158 13.392043 0.126820 -2.192359 -1.381837 12.966741 6.224225 12.059006 10.862974 12.750895 2.774911 0.117766 -11.287773 -4.996764 -0.129642 0.468466 -0.032488
1.733447 88.864053 9.723153 -56.283084 -7.247928 -6.909317 10.520707 4.364481 -4.939297 6.193788 2.495705 -2.718333 7.725093 3.164184 -3.355305 6.193802 2.495699 -2.718321 -4.041115 9.065691 0.346559 -4.485025 -16.122330 1.339793 -9.627759 2.738603 1.780050 4.374052 -1.090338 89.659936 12.868292 6.417634 8.001034 -2.611806 -14.625710 1.327228 -18.750238 -0.511125 2.784116 3.572712 -4.598887 -83.044962 7.184595 -1.619803 0.940060 -6.568059 -9.621974 11.235138 7.021206 11.240003 -1.797172 9.833681 1.255890 -1.821039 -2.960658 -0.555823 13.334891 0.125068 -2.487417 -1.632909 12.882463 6.479647 12.014577 10.941341 12.292949 2.655990 0.065397 -11.047943 -5.013038 -0.138825 0.413837 -0.035460
1.609602 88.889491 9.679812 -56.204984 -7.214963 -6.794283 10.475268 4.319433 -4.857858 6.150282 2.453266 -2.688635 7.671163 3.110358 -3.319186 6.150297 2.453260 -2.688623 -4.050829 9.077125 0.393840 -4.507052 -16.110136 1.393641 -9.778914 2.824877 1.719758 4.301365 -1.134054 89.756478 12.870873 6.307499 7.972014 -2.528459 -14.661182 1.243302 -18.757760 -0.485662 2.804340 3.466703 -4.475423 -83.190637 7.223026 -1.528040 0.985353 -6.496515 -9.585671 11.170682 6.865070 11.368412 -1.837020 9.795480 1.113460 -1.860271 -2.936335 -0.542314 13.266793 0.122128 -2.718349 -1.830055 12.818509 6.729534 11.985356 11.016330 11.844967 2.541104 0.006237 -10.794968 -5.030761 -0.153860 0.346319 -0.041155
1.488675 88.912087 9.631365 -56.109672 -7.147681 -6.678127 10.411481 4.247861 -4.788311 6.105663 2.407516 -2.657973 7.615862 3.052377 -3.281915 6.105678 2.407510 -2.657961 -4.058323 9.086538 0.444273 -4.527480 -16.100086 1.450428 -9.922151 2.910240 1.664079 4.199486 -1.169148 89.861369 12.881831 6.206466 7.924713 -2.476528 -14.676228 1.185630 -18.768789 -0.455792 2.832623 3.350789 -4.349163 -83.349154 7.259313 -1.434822 1.029882 -6.441354 -9.551704 11.123439 6.696021 11.463568 -1.879193 9.766692 0.971091 -1.899724 -2.927815 -0.518491 13.187949 0.122647 -2.919799 -1.981149 12.756228 6.937859 11.949806 11.076510 11.404454 2.429985 -0.063114 -10.564369 -5.053960 -0.160468 0.300427 -0.043869
1.367030 88.931840 9.579946 -56.017921 -7.075564 -6.565741 10.348901 4.172980 -4.719006 6.061678 2.359503 -2.625410 7.561375 2.991548 -3.242289 6.061694 2.359496 -2.625398 -4.061889 9.091027 0.495226 -4.543879 -16.095274 1.506910 -10.056079 2.992795 1.612029 4.061742 -1.192354 89.972853 12.909629 6.123433 7.857914 -2.465715 -14.665967 1.163825 -18.782851 -0.423070 2.868676 3.221416 -4.222540 -83.523460 7.295822 -1.345386 1.074009 -6.401323 -9.522888 11.092620 6.537217 11.553267 -1.912783 9.734739 0.828615 -1.940320 -2.922264 -0.503207 13.102597 0.122523 -3.083471 -2.097897 12.720377 7.128796 11.921074 11.115556 10.973997 2.320282 -0.126767 -10.340155 -5.078334 -0.167058 0.259743 -0.047883
1.235870 88.949482 9.534551 -55.855721 -7.065875 -6.457842 10.219758 4.171127 -4.645417 6.018114 2.310266 -2.590080 7.507433 2.929156 -3.199210 6.018130 2.310261 -2.590068 -4.060105 9.087649 0.544948 -4.554351 -16.098839 1.560877 -10.183553 3.070914 1.562969 3.889433 -1.204428 90.086851 12.958711 6.056282 7.770071 -2.497502 -14.625258 1.179351 -18.790300 -0.397665 2.912154 3.066086 -4.094319 -83.715213 7.337310 -1.257038 1.118999 -6.378360 -9.506148 11.079952 6.319215 11.739512 -1.908315 9.700178 0.688776 -1.998919 -3.001948 -0.531360 12.961806 0.198535 -3.187390 -2.152676 12.643275 7.377699 11.907643 11.138922 10.558200 2.212197 -0.189952 -10.122867 -5.103518 -0.172013 0.220838 -0.052557
1.112438 88.962172 9.478476 -55.782494 -6.994815 -6.366875 10.165832 4.100483 -4.560071 5.975575 2.260074 -2.552782 7.454783 2.865552 -3.153669 5.975592 2.260069 -2.552770 -4.053788 9.074876 0.594622 -4.560178 -16.112419 1.613865 -10.309548 3.148136 1.515525 3.680108 -1.211544 90.206544 13.028337 6.002330 7.659282 -2.565568 -14.559558 1.221604 -18.790084 -0.390803 2.961154 2.879966 -3.958154 -83.921027 7.386406 -1.167493 1.164155 -6.376186 -9.501577 11.089927 6.194798 11.835365 -1.910491 9.666056 0.541821 -2.038857 -3.004304 -0.567388 12.864923 0.190673 -3.265805 -2.221422 12.660936 7.537530 11.910170 11.159714 10.156780 2.106046 -0.260029 -9.911425 -5.128810 -0.177381 0.186716 -0.057829
